# Blender 5.1.2
# www.blender.org
mtllib Arrow.mtl
o Circle
v 0.000000 0.000000 -0.052708
v -0.022869 0.000000 -0.047488
v -0.041208 0.000000 -0.032863
v -0.051386 0.000000 -0.011729
v -0.051386 0.000000 0.011729
v -0.041208 0.000000 0.032863
v -0.022869 0.000000 0.047488
v 0.000000 0.000000 0.052708
v 0.022869 0.000000 0.047488
v 0.041208 0.000000 0.032863
v 0.051386 0.000000 0.011729
v 0.051386 0.000000 -0.011729
v 0.041208 0.000000 -0.032863
v 0.022869 0.000000 -0.047488
v -0.000000 0.111675 -0.032803
v -0.014233 0.111675 -0.029554
v -0.025646 0.111675 -0.020452
v -0.031981 0.111675 -0.007299
v -0.031981 0.111675 0.007299
v -0.025646 0.111675 0.020452
v -0.014233 0.111675 0.029554
v -0.000000 0.111675 0.032803
v 0.014233 0.111675 0.029554
v 0.025646 0.111675 0.020452
v 0.031981 0.111675 0.007299
v 0.031981 0.111675 -0.007299
v 0.025646 0.111675 -0.020452
v 0.014233 0.111675 -0.029554
v 0.000000 0.120643 -0.078445
v -0.034036 0.120643 -0.070677
v -0.061331 0.120643 -0.048910
v -0.076478 0.120643 -0.017456
v -0.076478 0.120643 0.017456
v -0.061331 0.120643 0.048910
v -0.034036 0.120643 0.070677
v 0.000000 0.120643 0.078445
v 0.034036 0.120643 0.070677
v 0.061331 0.120643 0.048910
v 0.076478 0.120643 0.017456
v 0.076478 0.120643 -0.017456
v 0.061331 0.120643 -0.048910
v 0.034036 0.120643 -0.070677
v 0.000000 0.219758 0.000000
vn -0.6143 -0.1712 0.7703
vn 0.6143 -0.1712 -0.7703
vn -0.2192 -0.1712 0.9605
vn 0.2192 -0.1712 -0.9605
vn -0.2192 -0.1712 -0.9605
vn 0.2192 -0.1712 0.9605
vn -0.6143 -0.1712 -0.7703
vn 0.6143 -0.1712 0.7703
vn -0.8877 -0.1712 -0.4275
vn 0.8877 -0.1712 0.4275
vn -0.9852 -0.1712 -0.0000
vn 0.9852 -0.1712 -0.0000
vn -0.8877 -0.1712 0.4275
vn 0.8877 -0.1712 -0.4275
vn -0.0440 0.9803 0.1926
vn 0.0440 0.9803 -0.1926
vn -0.0440 0.9803 -0.1926
vn 0.0440 0.9803 0.1926
vn -0.1232 0.9803 -0.1545
vn 0.1232 0.9803 0.1545
vn -0.1780 0.9803 -0.0857
vn 0.1780 0.9803 0.0857
vn -0.1976 0.9803 -0.0000
vn 0.1976 0.9803 -0.0000
vn -0.1780 0.9803 0.0857
vn 0.1780 0.9803 -0.0857
vn -0.1232 0.9803 0.1545
vn 0.1232 0.9803 -0.1545
vn -0.1762 -0.6109 -0.7719
vn 0.1762 -0.6109 0.7719
vn -0.4936 -0.6109 -0.6190
vn 0.4936 -0.6109 0.6190
vn -0.7133 -0.6109 -0.3435
vn 0.7133 -0.6109 0.3435
vn -0.7917 -0.6109 -0.0000
vn 0.7917 -0.6109 -0.0000
vn -0.7133 -0.6109 0.3435
vn 0.7133 -0.6109 -0.3435
vn -0.4936 -0.6109 0.6190
vn 0.4936 -0.6109 -0.6190
vn -0.1762 -0.6109 0.7719
vn 0.1762 -0.6109 -0.7719
vn -0.0000 1.0000 -0.0000
vt 0.000000 0.000000
s 0
f 14/1/1 13/1/1 27/1/1 28/1/1
f 7/1/2 6/1/2 20/1/2 21/1/2
f 1/1/3 14/1/3 28/1/3 15/1/3
f 8/1/4 7/1/4 21/1/4 22/1/4
f 9/1/5 8/1/5 22/1/5 23/1/5
f 2/1/6 1/1/6 15/1/6 16/1/6
f 10/1/7 9/1/7 23/1/7 24/1/7
f 3/1/8 2/1/8 16/1/8 17/1/8
f 11/1/9 10/1/9 24/1/9 25/1/9
f 4/1/10 3/1/10 17/1/10 18/1/10
f 12/1/11 11/1/11 25/1/11 26/1/11
f 5/1/12 4/1/12 18/1/12 19/1/12
f 13/1/13 12/1/13 26/1/13 27/1/13
f 6/1/14 5/1/14 19/1/14 20/1/14
f 15/1/15 28/1/15 42/1/15 29/1/15
f 22/1/16 21/1/16 35/1/16 36/1/16
f 23/1/17 22/1/17 36/1/17 37/1/17
f 16/1/18 15/1/18 29/1/18 30/1/18
f 24/1/19 23/1/19 37/1/19 38/1/19
f 17/1/20 16/1/20 30/1/20 31/1/20
f 25/1/21 24/1/21 38/1/21 39/1/21
f 18/1/22 17/1/22 31/1/22 32/1/22
f 26/1/23 25/1/23 39/1/23 40/1/23
f 19/1/24 18/1/24 32/1/24 33/1/24
f 27/1/25 26/1/25 40/1/25 41/1/25
f 20/1/26 19/1/26 33/1/26 34/1/26
f 28/1/27 27/1/27 41/1/27 42/1/27
f 21/1/28 20/1/28 34/1/28 35/1/28
f 37/1/29 36/1/29 43/1/29
f 30/1/30 29/1/30 43/1/30
f 38/1/31 37/1/31 43/1/31
f 31/1/32 30/1/32 43/1/32
f 39/1/33 38/1/33 43/1/33
f 32/1/34 31/1/34 43/1/34
f 40/1/35 39/1/35 43/1/35
f 33/1/36 32/1/36 43/1/36
f 41/1/37 40/1/37 43/1/37
f 34/1/38 33/1/38 43/1/38
f 42/1/39 41/1/39 43/1/39
f 35/1/40 34/1/40 43/1/40
f 29/1/41 42/1/41 43/1/41
f 36/1/42 35/1/42 43/1/42
f 2/1/43 3/1/43 4/1/43 5/1/43 6/1/43 7/1/43 8/1/43 9/1/43 10/1/43 11/1/43 12/1/43 13/1/43 14/1/43 1/1/43
